<svg width="1440" height="1024" viewBox="0 0 1440 1024" fill="none" xmlns="http://www.w3.org/2000/svg">
<g clip-path="url(#clip0_2_44)">
<line x1="-141.666" y1="211.004" x2="684.334" y2="1102" stroke="#003CBE" stroke-width="50"/>
<line x1="-262.666" y1="421.004" x2="563.334" y2="1312" stroke="#003CBE" stroke-width="50"/>
<line x1="952.334" y1="-269.996" x2="1778.33" y2="621.004" stroke="#003CBE" stroke-width="50"/>
<line x1="856.154" y1="-35.2072" x2="34.1003" y2="1084.75" stroke="#003CBE" stroke-width="50"/>
<line x1="2.30867" y1="-15.88" x2="882.309" y2="1054.12" stroke="#003CBE" stroke-width="50"/>
<line x1="861.634" y1="-42.6666" x2="1528.25" y2="702.64" stroke="#003CBE" stroke-width="50"/>
<line x1="533.685" y1="-87.6091" x2="1494.18" y2="992.95" stroke="#003CBE" stroke-width="50"/>
<line x1="252.981" y1="-74.2698" x2="1242.98" y2="1080.73" stroke="#003CBE" stroke-width="50"/>
<line x1="1471.37" y1="-11.5129" x2="720.375" y2="1044.69" stroke="#003CBE" stroke-width="50"/>
<line x1="534.92" y1="-26.383" x2="-49.7184" y2="784.823" stroke="#003CBE" stroke-width="50"/>
<line x1="368.92" y1="-163.383" x2="-215.718" y2="647.823" stroke="#003CBE" stroke-width="50"/>
<line x1="1584.92" y1="572.617" x2="1000.28" y2="1383.82" stroke="#003CBE" stroke-width="50"/>
<line x1="1504.92" y1="339.617" x2="920.282" y2="1150.82" stroke="#003CBE" stroke-width="50"/>
<line x1="1183.17" y1="-43.2299" x2="368.989" y2="1068.64" stroke="#003CBE" stroke-width="50"/>
</g>
<defs>
<clipPath id="clip0_2_44">
<rect width="1440" height="1024" fill="white"/>
</clipPath>
</defs>
</svg>
